<?xml version="1.0" encoding="UTF-8"?>
<svg width="752pt" height="752pt" version="1.1" viewBox="0 0 752 752" xmlns="http://www.w3.org/2000/svg">
 <g>
  <rect width="752" height="752" fill="#fff"/>
  <path d="m333.38 186.57c-81.023 0-146.81 65.785-146.81 146.81 0 81.023 65.785 146.81 146.81 146.81 11.457 0 22.48-1.4922 33.152-3.9922v27.523c-0.015625 1.707 0.88672 3.293 2.3672 4.1445l94.715 56.832c1.4648 0.84375 3.2695 0.84375 4.7383 0l94.715-56.832c1.4766-0.85156 2.3828-2.4375 2.3672-4.1445v-113.51c-0.035156-1.6523-0.93359-3.168-2.3672-3.9922l-83.023-49.875c0.046875-0.97266 0.14453-1.9414 0.14453-2.9609 0-81.023-65.785-146.81-146.81-146.81zm-4.8828 12.727c0.046875-0.003906 0.097656 0.003906 0.14844 0v77.254c-21.176-0.39062-40.184-3.3906-57.57-9.0273 3.2773-11.41 7.3516-21.871 12.137-30.785 12.062-22.492 27.922-35.859 45.285-37.441zm9.6172 0c17.422 1.5195 33.336 14.887 45.438 37.441 4.7812 8.9141 8.8594 19.375 12.133 30.785-17.387 5.6367-36.395 8.6367-57.57 9.0273zm-35.664 0.29688c-10.672 7.457-20.02 18.707-27.527 32.707-5.0625 9.4336-9.3008 20.223-12.727 31.965-12.23-4.7539-23.742-10.836-34.633-18.352 18.891-22.824 45.012-39.449 74.887-46.32zm61.859 0c29.875 6.8711 55.996 23.496 74.887 46.32-10.891 7.5156-22.402 13.598-34.633 18.352-3.4258-11.742-7.6641-22.531-12.727-31.965-7.5078-14-16.855-25.25-27.527-32.707zm-142.66 53.867c11.895 8.2656 24.562 15.008 38.035 20.129-4.0586 16.762-6.332 35.309-6.6602 55.055h-56.832c0.94531-28.031 10.172-53.859 25.457-75.184zm223.47 0c15.285 21.324 24.66 47.152 25.605 75.184h-56.98c-0.32812-19.746-2.6016-38.293-6.6562-55.055 13.469-5.1211 26.137-11.863 38.031-20.129zm-176.41 23.238c18.262 5.8281 38.109 8.9297 59.938 9.3203v42.625h-66.156c0.32422-18.699 2.4883-36.176 6.2188-51.945zm129.34 0c3.7305 15.77 5.8945 33.246 6.2188 51.945h-66.156v-42.625c21.828-0.39062 41.676-3.4922 59.938-9.3203zm-201.86 61.414h56.832c0.32422 19.766 2.5977 38.426 6.6602 55.203-13.469 5.1211-26.145 11.719-38.035 19.98-15.285-21.324-24.512-47.152-25.457-75.184zm66.301 0h66.156v42.773c-21.836 0.39062-41.672 3.4883-59.938 9.3203-3.7461-15.773-5.8945-33.34-6.2188-52.094zm75.625 0h66.156c-0.17969 9.668-0.79688 18.984-1.9258 27.973l-29.598 17.758c-10.965-1.8828-22.52-2.7539-34.633-2.957zm75.625 0h35.078l-36.262 21.758c0.67969-7.043 1.0625-14.34 1.1836-21.758zm52.242 0.74219 86.281 51.648-86.281 51.059-86.277-51.059zm-140.59 51.5c1.0664-0.03125 2.1797 0.019531 3.2578 0v76.957c-17.418-1.5195-33.336-14.887-45.434-37.441-4.8086-8.9609-9-19.18-12.285-30.633 16.539-5.3477 34.523-8.2656 54.461-8.8828zm12.727 0c9.9141 0.17188 19.391 0.90625 28.418 2.2227v60.527c-8.7422 8.4648-18.273 13.32-28.418 14.207zm37.887 9.1758 85.246 50.172v102.56l-85.246-51.059v-30.043c0.13281-0.63281 0.13281-1.2891 0-1.9219zm179.96 0v101.67l-85.242 51.059v-102.56zm-293.91 2.9609c0.003906 0.015624 0.14453-0.015626 0.14844 0 3.4336 11.797 7.6445 22.496 12.727 31.969 7.5078 13.996 16.855 25.289 27.527 32.703-29.875-6.8711-55.996-23.496-74.887-46.32 10.871-7.5039 22.281-13.621 34.484-18.352zm104.48 63.195v1.0352c-0.58203 0.14453-1.1953 0.16016-1.7773 0.29688 0.60156-0.42578 1.1836-0.88672 1.7773-1.332z" fill="#3b6af9"/>
 </g>
</svg>
